<?xml version="1.0" encoding="UTF-8"?>
<!DOCTYPE svg PUBLIC "-//W3C//DTD SVG 1.1//EN" "http://www.w3.org/Graphics/SVG/1.1/DTD/svg11.dtd">
<!-- Creator: CorelDRAW -->
<svg xmlns="http://www.w3.org/2000/svg" xml:space="preserve" width="84.7489mm" height="25.6588mm" version="1.1" style="shape-rendering:geometricPrecision; text-rendering:geometricPrecision; image-rendering:optimizeQuality; fill-rule:evenodd; clip-rule:evenodd"
viewBox="0 0 8331.51 2522.47"
 xmlns:xlink="http://www.w3.org/1999/xlink"
 xmlns:xodm="http://www.corel.com/coreldraw/odm/2003">
 <defs>
  <style type="text/css">
   <![CDATA[
    .fil4 {fill:#0E1421}
    .fil2 {fill:#0E1421}
    .fil5 {fill:#752DE6}
    .fil0 {fill:#752DE6}
    .fil1 {fill:white}
    .fil6 {fill:#0E1421;fill-rule:nonzero}
    .fil7 {fill:#0E1421;fill-rule:nonzero}
    .fil3 {fill:gray;fill-rule:nonzero}
   ]]>
  </style>
 </defs>
 <g id="Camada_x0020_1">
  <metadata id="CorelCorpID_0Corel-Layer"/>
  <g id="_2417358046944">
   <path class="fil0" d="M5732.7 1152.31c8.34,15.21 15.76,30.48 24.7,45.41 47.11,78.73 56.97,50 31.72,82.15 -20.34,25.87 -39.33,55.47 -54.05,86.11 -33.49,69.7 -51.81,160.45 -43.05,239.12 24.81,223.11 201.59,412.12 432.15,418.29l457.43 -2.97 376.12 -520.93c-9.51,-63.1 -25.82,-116.19 -62.26,-174.74 -49.7,-79.88 -53.57,-51.12 -28.08,-84.63 6.85,-9.01 13.38,-17.96 19.48,-27.18 177.14,-267.1 30.48,-634.56 -276.48,-711.11l-506.41 -2.39c-294.49,8.06 -511.46,397.65 -371.28,652.88zm1091.63 744.4c11.42,-11.31 22.24,-23.18 32.43,-35.61l-7.29 0 -25.14 35.61zm-176.15 -61.88l-154.08 -108.53c-23.44,-14.71 -11.9,-15.92 -49.1,-15.82 -78.96,0 -259.73,10.5 -328.72,-4.13 -67.84,-14.39 -115.18,-80.38 -111.58,-153.34 0.75,-15.25 7.83,-41.12 14.24,-51.82 39.23,-65.29 83.13,-85.71 143.39,-84.7l367.41 6.12c25.05,7.14 35.43,8.92 57.71,24.55 40.41,28.37 60.67,71.57 60.99,122.57 0.28,43.99 0.22,88.04 0.15,132.03l-0.4 133.07zm-642.68 -605.85l-0.18 -264.26c0.07,-41.21 11.78,-75.19 32.99,-99.18 30.16,-34.11 51.46,-43.46 96.09,-51.33 13.44,-2.37 365.25,-1.19 380.86,-0.48 68.63,3.12 127.81,65.23 132.99,132.66 4.4,57.55 -22.83,103.3 -63.25,133.18 -45.61,33.72 -119.75,24.32 -175.1,24.14l-197.21 -0.03c-32.16,0.13 -31.33,0.5 -51.6,15.09l-155.59 110.21z"/>
   <path class="fil1" d="M6005.51 1228.97l-0.18 -264.26c0.07,-41.21 11.78,-75.19 32.99,-99.18 30.16,-34.11 51.46,-43.46 96.09,-51.33 13.44,-2.37 365.25,-1.19 380.86,-0.48 68.63,3.12 127.81,65.23 132.99,132.66 4.4,57.55 -22.83,103.3 -63.25,133.18 -45.61,33.72 -119.75,24.32 -175.1,24.14l-197.21 -0.03c-32.16,0.13 -31.33,0.5 -51.6,15.09l-155.59 110.21zm438.91 -316.98c21.79,0 39.47,17.68 39.47,39.48 0,21.81 -17.68,39.49 -39.47,39.49 -21.81,0 -39.49,-17.68 -39.49,-39.49 0,-21.8 17.68,-39.48 39.49,-39.48zm-118.45 0c21.8,0 39.48,17.68 39.48,39.48 0,21.81 -17.68,39.49 -39.48,39.49 -21.8,0 -39.48,-17.68 -39.48,-39.49 0,-21.8 17.68,-39.48 39.48,-39.48zm-118.44 0c21.8,0 39.48,17.68 39.48,39.48 0,21.81 -17.68,39.49 -39.48,39.49 -21.79,0 -39.47,-17.68 -39.47,-39.49 0,-21.8 17.68,-39.48 39.47,-39.48z"/>
   <path class="fil1" d="M6648.19 1834.82l-154.08 -108.53c-23.44,-14.71 -11.9,-15.92 -49.1,-15.82 -78.96,0 -259.73,10.5 -328.72,-4.13 -67.84,-14.39 -115.18,-80.38 -111.58,-153.34 0.75,-15.25 7.83,-41.12 14.24,-51.82 39.23,-65.29 83.13,-85.71 143.39,-84.7l367.41 6.12c25.05,7.14 35.43,8.92 57.71,24.55 40.41,28.37 60.67,71.57 60.99,122.57 0.28,43.99 0.22,88.04 0.15,132.03l-0.4 133.07zm-203.77 -310.89c21.79,0 39.47,17.68 39.47,39.47 0,21.81 -17.68,39.49 -39.47,39.49 -21.81,0 -39.49,-17.68 -39.49,-39.49 0,-21.79 17.68,-39.47 39.49,-39.47zm-118.45 0c21.8,0 39.48,17.68 39.48,39.47 0,21.81 -17.68,39.49 -39.48,39.49 -21.8,0 -39.48,-17.68 -39.48,-39.49 0,-21.79 17.68,-39.47 39.48,-39.47zm-118.44 0c21.8,0 39.48,17.67 39.48,39.47 0,21.81 -17.68,39.49 -39.48,39.49 -21.79,0 -39.47,-17.68 -39.47,-39.49 0,-21.8 17.68,-39.47 39.47,-39.47z"/>
   <path class="fil2" d="M6207.52 1523.93c21.8,0 39.48,17.67 39.48,39.47 0,21.81 -17.68,39.49 -39.48,39.49 -21.79,0 -39.47,-17.68 -39.47,-39.49 0,-21.8 17.68,-39.47 39.47,-39.47z"/>
   <path class="fil2" d="M6207.52 911.99c21.8,0 39.48,17.68 39.48,39.48 0,21.81 -17.68,39.49 -39.48,39.49 -21.79,0 -39.47,-17.68 -39.47,-39.49 0,-21.8 17.68,-39.48 39.47,-39.48z"/>
   <path class="fil2" d="M6325.96 1523.93c21.8,0 39.48,17.68 39.48,39.47 0,21.81 -17.68,39.49 -39.48,39.49 -21.8,0 -39.48,-17.68 -39.48,-39.49 0,-21.79 17.68,-39.47 39.48,-39.47z"/>
   <path class="fil2" d="M6325.96 911.99c21.8,0 39.48,17.68 39.48,39.48 0,21.81 -17.68,39.49 -39.48,39.49 -21.8,0 -39.48,-17.68 -39.48,-39.49 0,-21.8 17.68,-39.48 39.48,-39.48z"/>
   <path class="fil2" d="M6444.41 1523.93c21.79,0 39.47,17.68 39.47,39.47 0,21.81 -17.68,39.49 -39.47,39.49 -21.81,0 -39.49,-17.68 -39.49,-39.49 0,-21.79 17.68,-39.47 39.49,-39.47z"/>
   <path class="fil2" d="M6444.41 911.99c21.79,0 39.47,17.68 39.47,39.48 0,21.81 -17.68,39.49 -39.47,39.49 -21.81,0 -39.49,-17.68 -39.49,-39.49 0,-21.8 17.68,-39.48 39.49,-39.48z"/>
   <g id="_2139801764336">
    <path class="fil3" d="M73.52 2375.13l0 -13.79c0,-9.19 -4.59,-13.78 -9.19,-18.37 -4.59,-4.6 -9.19,-4.6 -22.97,-4.6l-27.58 0 0 59.74 27.58 0c13.78,0 18.38,-4.6 22.97,-4.6 4.6,-4.59 9.19,-9.18 9.19,-18.37zm13.78 0c0,13.78 -4.59,22.97 -9.18,27.57 -4.6,4.6 -18.38,9.19 -36.77,9.19l-41.36 0 0 -156.24 41.36 0c18.38,0 27.58,4.6 36.77,9.19 4.59,4.59 4.59,13.78 4.59,22.97l0 13.79c0,9.18 0,13.78 -4.59,18.37 0,4.6 -4.6,9.19 -13.79,9.19 9.19,4.6 13.79,4.6 18.38,9.19 4.59,4.6 4.59,13.78 4.59,22.97l0 13.79zm-73.52 -50.55l27.58 0c9.19,0 18.38,-4.6 22.97,-4.6 4.6,-4.59 4.6,-9.19 4.6,-13.78l0 -18.38c0,-4.59 0,-9.19 -4.6,-13.78 -4.59,0 -13.78,-4.6 -22.97,-4.6l-27.58 0 0 55.15zm211.39 73.52c9.19,0 13.78,-4.6 18.38,-4.6 4.59,-4.59 4.59,-13.78 4.59,-27.57l0 -110.29 13.78 0 0 119.48c0,13.78 0,22.97 -9.18,27.57 -4.6,9.19 -13.79,9.19 -27.58,9.19l-4.6 0c-13.78,0 -27.57,0 -32.17,-9.19 -9.19,-4.59 -9.19,-13.78 -9.19,-27.57l0 -119.48 13.79 0 0 110.29c0,13.78 4.59,22.97 4.59,27.57 4.6,0 9.19,4.6 22.97,4.6l4.6 0zm215.98 -41.36l0 22.97c0,9.19 -4.6,18.38 -9.19,22.97 -4.59,9.19 -13.78,9.19 -27.58,9.19l-13.78 0c-13.78,0 -22.97,-4.59 -27.58,-9.19 -4.59,-4.59 -9.19,-18.37 -9.19,-32.17l0 -9.19 13.79 0 0 13.79c0,9.19 4.59,13.78 4.59,18.37 4.6,4.6 9.19,4.6 18.38,4.6l13.78 0c9.19,0 13.79,0 18.38,-4.6 0,-4.59 4.6,-9.18 4.6,-18.37l0 -9.19c0,-4.6 0,-9.19 -4.6,-9.19 0,-4.6 0,-4.6 0,-9.19 0,0 -9.19,-4.59 -27.58,-9.19 0,0 -4.59,0 -4.59,0 0,0 -4.59,0 -4.59,0 -9.19,0 -13.79,-4.59 -18.38,-4.59 -4.6,-4.6 -4.6,-4.6 -9.19,-9.19 0,-4.6 0,-9.19 0,-18.38l0 -18.38c0,-9.19 0,-18.38 9.19,-22.97 4.59,-9.19 13.78,-9.19 27.57,-9.19l9.19 0c13.79,0 22.98,0 27.58,9.19 9.19,4.59 9.19,13.78 9.19,27.58l0 4.59 -13.78 0 0 -4.59c0,-9.19 -4.6,-13.79 -4.6,-18.38 -4.59,0 -9.19,-4.6 -18.38,-4.6l-13.78 0c-4.59,0 -9.19,0 -13.78,4.6 -4.6,4.59 -4.6,9.19 -4.6,18.38l0 13.78c0,9.19 9.19,13.78 22.97,18.38 0,0 4.6,0 4.6,0 18.38,0 27.58,4.59 32.17,9.19 9.19,4.59 9.19,13.78 9.19,22.97zm91.91 55.14l0 -156.24 18.38 0 0 156.24 -18.38 0zm110.29 0l0 -156.24 22.97 0 59.74 137.86 0 -137.86 13.78 0 0 156.24 -22.97 0 -55.15 -133.27 0 133.27 -18.37 0zm257.34 -13.78l0 13.78 -64.34 0 0 -156.24 64.34 0 0 13.78 -50.55 0 0 55.15 50.55 0 0 13.78 -50.55 0 0 59.74 50.55 0zm174.62 -41.36l0 22.97c0,9.19 -4.6,18.38 -9.19,22.97 -9.19,9.19 -18.38,9.19 -27.58,9.19l-13.78 0c-13.79,0 -22.98,-4.59 -32.18,-9.19 -4.59,-4.59 -4.59,-18.37 -4.59,-32.17l0 -9.19 13.78 0 0 13.79c0,9.19 0,13.78 4.6,18.37 4.59,4.6 9.19,4.6 18.38,4.6l13.78 0c4.59,0 13.78,0 13.78,-4.6 4.6,-4.59 4.6,-9.18 4.6,-18.37l0 -9.19c0,-4.6 0,-9.19 0,-9.19 0,-4.6 0,-4.6 0,-9.19 -4.6,0 -13.79,-4.59 -27.58,-9.19 -4.59,0 -4.59,0 -9.19,0 0,0 0,0 0,0 -9.19,0 -18.38,-4.59 -18.38,-4.59 -4.59,-4.6 -9.19,-4.6 -9.19,-9.19 -4.59,-4.6 -4.59,-9.19 -4.59,-18.38l0 -18.38c0,-9.19 4.59,-18.38 9.19,-22.97 4.59,-9.19 13.78,-9.19 27.58,-9.19l13.78 0c13.78,0 22.97,0 27.58,9.19 4.59,4.59 9.19,13.78 9.19,27.58l0 4.59 -18.38 0 0 -4.59c0,-9.19 0,-13.79 -4.6,-18.38 0,0 -9.19,-4.6 -13.78,-4.6l-13.78 0c-9.19,0 -13.79,0 -13.79,4.6 -4.59,4.59 -4.59,9.19 -4.59,18.38l0 13.78c0,9.19 4.59,13.78 18.38,18.38 4.59,0 9.19,0 9.19,0 18.37,0 27.57,4.59 32.17,9.19 4.59,4.59 9.19,13.78 9.19,22.97zm174.62 0l0 22.97c0,9.19 -4.6,18.38 -9.19,22.97 -4.6,9.19 -13.79,9.19 -27.58,9.19l-13.78 0c-13.79,0 -22.98,-4.59 -27.58,-9.19 -9.19,-4.59 -9.19,-18.37 -9.19,-32.17l0 -9.19 13.78 0 0 13.79c0,9.19 4.6,13.78 4.6,18.37 4.59,4.6 9.19,4.6 18.38,4.6l13.78 0c9.19,0 13.78,0 13.78,-4.6 4.6,-4.59 4.6,-9.18 4.6,-18.37l0 -9.19c0,-4.6 0,-9.19 0,-9.19 0,-4.6 0,-4.6 0,-9.19 -4.6,0 -13.79,-4.59 -27.58,-9.19 -4.59,0 -4.59,0 -4.59,0 -4.6,0 -4.6,0 -4.6,0 -9.19,0 -13.78,-4.59 -18.38,-4.59 -4.59,-4.6 -9.19,-4.6 -9.19,-9.19 0,-4.6 -4.59,-9.19 -4.59,-18.38l0 -18.38c0,-9.19 4.59,-18.38 9.19,-22.97 9.19,-9.19 18.38,-9.19 27.58,-9.19l13.78 0c13.78,0 22.97,0 27.58,9.19 4.59,4.59 9.19,13.78 9.19,27.58l0 4.59 -18.38 0 0 -4.59c0,-9.19 0,-13.79 -4.6,-18.38 0,0 -4.59,-4.6 -13.78,-4.6l-13.78 0c-4.6,0 -13.79,0 -13.79,4.6 -4.59,4.59 -4.59,9.19 -4.59,18.38l0 13.78c0,9.19 4.59,13.78 22.97,18.38 0,0 4.59,0 4.59,0 18.38,0 27.58,4.59 32.18,9.19 4.59,4.59 9.19,13.78 9.19,22.97zm284.91 0c0,4.59 0,4.59 0,4.59 0,4.6 0,4.6 0,4.6 0,18.38 -4.59,27.57 -9.19,36.76 -9.19,4.6 -18.37,9.19 -27.57,9.19l-13.79 0c-9.19,0 -13.78,0 -18.37,-4.59 -4.6,0 -9.19,-4.6 -13.79,-9.19 0,-4.6 -4.59,-4.6 -4.59,-13.78 0,-4.6 0,-9.19 0,-18.38l0 -9.19 0 -50.55c0,-18.38 0,-32.17 9.19,-41.36 4.59,-4.59 13.78,-9.19 27.57,-9.19l9.19 0c13.79,0 22.97,4.6 32.17,9.19 4.6,9.19 9.19,18.38 9.19,32.17 0,4.6 0,4.6 0,4.6 0,4.59 0,4.59 0,4.59l-18.38 0 0 0c0,-13.78 0,-22.97 -4.59,-27.58 -4.59,-4.59 -9.19,-9.19 -18.38,-9.19l-9.19 0c-9.19,0 -13.78,4.6 -18.37,9.19 0,4.6 -4.6,13.79 -4.6,27.58l0 50.55c0,18.38 4.6,32.17 4.6,32.17 4.59,4.59 9.18,9.19 18.37,9.19l9.19 0c9.19,0 13.79,-4.6 18.38,-4.6 4.59,-4.59 4.59,-13.78 4.59,-32.17l0 -4.59 18.38 0zm137.86 -87.32l-9.19 0c-13.79,0 -18.38,4.6 -22.97,9.19 -4.6,4.6 -4.6,13.79 -4.6,27.58l0 55.14c0,13.79 0,22.98 4.6,27.58 4.59,4.59 9.18,9.19 22.97,9.19l9.19 0c9.19,0 13.78,-4.6 18.37,-9.19 4.6,-4.59 4.6,-13.78 4.6,-27.58l0 -55.14c0,-13.78 0,-22.97 -4.6,-27.58 -4.59,-4.59 -9.18,-9.19 -18.37,-9.19zm0 -13.78c13.78,0 22.97,4.6 32.17,9.19 4.59,9.19 9.19,22.97 9.19,41.36l0 55.14c0,18.38 -4.6,32.17 -9.19,41.36 -9.19,4.6 -18.38,9.19 -32.17,9.19l-13.79 0c-13.78,0 -22.97,-4.59 -27.57,-9.19 -9.19,-9.19 -13.79,-22.97 -13.79,-41.36l0 -55.14c0,-18.38 4.6,-32.17 13.79,-41.36 4.59,-4.59 13.78,-9.19 27.57,-9.19l13.79 0zm133.27 156.24l0 -156.24 22.97 0 45.95 137.86 45.96 -137.86 22.97 0 0 156.24 -13.78 0 0 -142.46 -50.55 142.46 -13.79 0 -45.95 -142.46 0 142.46 -13.78 0zm229.77 0l0 -156.24 27.58 0 41.36 137.86 45.95 -137.86 22.97 0 0 156.24 -13.78 0 0 -142.46 -45.95 142.46 -18.38 0 -41.36 -142.46 0 142.46 -18.38 0zm280.32 -13.78c9.19,0 13.79,-4.6 18.38,-4.6 4.59,-4.59 4.59,-13.78 4.59,-27.57l0 -110.29 13.79 0 0 119.48c0,13.78 0,22.97 -9.19,27.57 -4.6,9.19 -13.78,9.19 -32.17,9.19l0 0c-13.79,0 -27.58,0 -32.17,-9.19 -9.19,-4.59 -9.19,-13.78 -9.19,-27.57l0 -119.48 13.78 0 0 110.29c0,13.78 0,22.97 4.6,27.57 4.59,0 9.18,4.6 22.97,4.6l4.59 0zm133.27 13.78l0 -156.24 22.97 0 55.15 137.86 0 -137.86 18.38 0 0 156.24 -27.58 0 -55.14 -133.27 0 133.27 -13.79 0zm188.41 0l0 -156.24 18.38 0 0 156.24 -18.38 0zm197.61 -55.14c0,4.59 0,4.59 0,4.59 0,4.6 0,4.6 0,4.6 0,18.38 -4.6,27.57 -9.19,36.76 -4.6,4.6 -13.79,9.19 -27.58,9.19l-13.78 0c-9.19,0 -13.79,0 -18.38,-4.59 -4.59,0 -9.19,-4.6 -13.78,-9.19 0,-4.6 0,-4.6 -4.6,-13.78 0,-4.6 0,-9.19 0,-18.38l0 -9.19 0 -50.55c0,-18.38 4.6,-32.17 9.19,-41.36 4.6,-4.59 18.38,-9.19 32.17,-9.19l4.6 0c13.78,0 27.57,4.6 32.17,9.19 4.59,9.19 9.19,18.38 9.19,32.17 0,4.6 0,4.6 0,4.6 0,4.59 0,4.59 0,4.59l-18.38 0 0 0c0,-13.78 0,-22.97 -4.6,-27.58 0,-4.59 -9.18,-9.19 -18.37,-9.19l-4.6 0c-9.19,0 -18.38,4.6 -18.38,9.19 -4.59,4.6 -9.18,13.79 -9.18,27.58l0 50.55c0,18.38 4.59,32.17 4.59,32.17 4.59,4.59 9.19,9.19 22.97,9.19l4.6 0c9.19,0 18.37,-4.6 18.37,-4.6 4.6,-4.59 4.6,-13.78 4.6,-32.17l0 -4.59 18.38 0zm73.52 55.14l45.95 -156.24 18.38 0 41.36 156.24 -18.38 0 -9.19 -32.17 -50.54 0 -9.19 32.17 -18.38 0zm32.17 -50.55l41.36 0 -18.38 -82.72 -22.97 82.72zm165.43 50.55l0 -137.86 -32.17 0 0 -18.38 82.72 0 0 18.38 -32.17 0 0 137.86 -18.38 0zm133.26 0l0 -156.24 13.78 0 0 156.24 -13.78 0zm160.84 -142.46l-9.19 0c-9.19,0 -18.38,4.6 -22.97,9.19 0,4.6 -4.6,13.79 -4.6,27.58l0 55.14c0,13.79 4.6,22.98 4.6,27.58 4.59,4.59 13.78,9.19 22.97,9.19l9.19 0c9.19,0 13.78,-4.6 18.38,-9.19 4.59,-4.59 4.59,-13.78 4.59,-27.58l0 -55.14c0,-13.78 0,-22.97 -4.59,-27.58 -4.6,-4.59 -9.19,-9.19 -18.38,-9.19zm0 -13.78c13.78,0 27.57,4.6 32.17,9.19 4.59,9.19 9.19,22.97 9.19,41.36l0 55.14c0,18.38 -4.6,32.17 -9.19,41.36 -4.6,4.6 -18.38,9.19 -32.17,9.19l-13.79 0c-13.78,0 -22.97,-4.59 -27.57,-9.19 -9.19,-9.19 -9.19,-22.97 -9.19,-41.36l0 -55.14c0,-18.38 0,-32.17 9.19,-41.36 4.59,-4.59 13.78,-9.19 27.57,-9.19l13.79 0zm133.27 156.24l0 -156.24 22.97 0 59.74 137.86 0 -137.86 13.78 0 0 156.24 -22.97 0 -55.15 -133.27 0 133.27 -18.37 0zm275.72 -55.14l0 22.97c0,9.19 -4.59,18.38 -9.18,22.97 -9.19,9.19 -18.38,9.19 -27.58,9.19l-13.78 0c-13.79,0 -27.58,-4.59 -32.18,-9.19 -4.59,-4.59 -9.18,-18.37 -9.18,-32.17l0 -9.19 18.37 0 0 13.79c0,9.19 0,13.78 4.6,18.37 4.59,4.6 9.19,4.6 18.38,4.6l13.78 0c4.59,0 13.78,0 13.78,-4.6 4.6,-4.59 4.6,-9.18 4.6,-18.37l0 -9.19c0,-4.6 0,-9.19 0,-9.19 0,-4.6 0,-4.6 0,-9.19 -4.6,0 -13.79,-4.59 -27.58,-9.19 -4.59,0 -4.59,0 -9.19,0 0,0 0,0 0,0 -9.19,0 -18.38,-4.59 -18.38,-4.59 -4.59,-4.6 -9.19,-4.6 -9.19,-9.19 -4.59,-4.6 -4.59,-9.19 -4.59,-18.38l0 -18.38c0,-9.19 4.59,-18.38 9.19,-22.97 4.59,-9.19 13.78,-9.19 27.58,-9.19l13.78 0c9.19,0 22.97,0 27.58,9.19 4.59,4.59 9.18,13.78 9.18,27.58l0 4.59 -18.37 0 0 -4.59c0,-9.19 0,-13.79 -4.6,-18.38 0,0 -9.19,-4.6 -13.78,-4.6l-13.78 0c-9.19,0 -13.79,0 -13.79,4.6 -4.59,4.59 -4.59,9.19 -4.59,18.38l0 13.78c0,9.19 4.59,13.78 18.38,18.38 4.59,0 9.18,0 9.18,0 13.79,0 27.58,4.59 32.18,9.19 4.59,4.59 9.18,13.78 9.18,22.97z"/>
    <g>
     <path class="fil4" d="M3956.61 1786.93c-252.75,-556.04 -505.49,-1112.07 -758.24,-1668.11l-367.63 0 758.24 1668.11 -546.85 0 151.65 330.88 615.77 -4.6 147.06 -326.27z"/>
     <path class="fil5" d="M4204.76 454.28l-684.72 0c-50.55,-110.29 -101.09,-225.17 -151.64,-335.47 450.34,0 896.09,0 1346.44,0l-675.52 1484.31c-59.74,-133.27 -119.48,-266.53 -179.23,-395.21 114.89,-252.74 229.78,-505.49 344.66,-753.64l0.01 0.01z"/>
     <path class="fil6" d="M1226.96 932.19l-41.36 105.7c-18.38,50.55 -45.95,96.5 -110.28,96.5 -9.19,0 -55.15,-4.59 -64.34,-4.59 -36.76,0 -55.14,27.57 -55.14,55.14 0,59.74 78.13,68.93 128.67,68.93 124.07,0 179.23,-59.74 234.37,-197.61l317.08 -813.37c9.19,-32.17 18.38,-45.95 18.38,-64.33 0,-18.38 -22.97,-55.14 -59.74,-55.14 -41.36,0 -50.55,18.37 -73.52,87.31l-225.17 579.02 -215.98 -588.21c-18.38,-45.95 -27.58,-78.12 -73.52,-78.12 -36.77,0 -64.33,32.17 -64.33,59.73 0,18.38 4.59,36.77 13.78,64.34l271.12 684.71 0 -0.01zm303.3 -275.72c0,59.73 4.59,110.28 41.36,179.22 41.36,82.72 151.65,114.88 229.77,114.88 151.65,0 215.98,-87.31 257.34,-137.86 0,68.92 0,87.31 9.19,110.28 9.19,13.79 27.58,27.58 55.14,27.58 18.38,0 36.77,-9.19 45.96,-18.38 18.38,-18.37 18.38,-45.95 18.38,-87.31l0 -611.19c0,-45.95 0,-73.52 -18.38,-91.91 -13.78,-9.18 -32.17,-18.37 -50.55,-18.37 -18.38,0 -36.77,9.19 -45.96,18.37 -18.37,18.38 -18.37,45.96 -18.37,91.91l0 248.16c0,174.62 -18.38,206.79 -36.77,243.55 -32.17,64.33 -110.29,110.29 -188.41,110.29 -55.15,0 -110.29,-32.17 -137.87,-78.13 -27.57,-45.95 -27.57,-101.09 -27.57,-156.24l0 -367.63c0,-45.95 0,-73.52 -18.38,-91.91 -9.19,-9.18 -27.58,-18.37 -45.96,-18.37 -18.37,0 -36.76,9.19 -50.54,18.37 -18.38,18.38 -18.38,45.96 -18.38,91.91l0 422.78zm657.13 -395.2l0 -45.95c0,-22.98 0,-91.91 -59.74,-91.91 -18.38,0 -36.77,4.59 -45.96,18.37 -18.37,13.79 -18.37,41.36 -18.37,87.32l0 914.47c0,50.55 0,110.29 64.33,110.29 64.33,0 64.33,-59.74 64.33,-114.89l0 -326.27c13.79,18.38 105.69,137.86 280.32,137.86 275.72,0 349.25,-238.96 349.25,-404.39 0,-151.65 -64.33,-422.77 -349.25,-422.77 -170.02,0 -243.55,91.91 -284.91,137.86l0 0.01zm257.34 -32.17c101.1,0 243.55,78.13 243.55,312.48 0,174.62 -91.91,303.3 -238.96,303.3 -82.72,0 -257.34,-45.96 -257.34,-317.08 0,-225.17 133.27,-298.7 252.75,-298.7z"/>
     <path class="fil6" d="M716.88 1869.64c0,-36.76 -32.17,-59.73 -64.34,-59.73 -18.37,0 -32.17,9.19 -41.36,22.97 -4.59,9.19 -32.17,59.74 -41.36,68.93 -36.76,73.52 -114.88,110.28 -197.6,110.28 -147.05,0 -238.96,-114.88 -238.96,-307.89 0,-188.41 96.5,-303.29 238.96,-303.29 133.27,0 183.82,91.91 206.79,124.07 27.58,50.55 45.96,50.55 64.34,50.55 27.57,0 55.14,-22.97 55.14,-55.14 0,-27.58 -13.78,-55.15 -27.58,-73.53 -41.36,-68.92 -119.47,-147.05 -298.7,-147.05 -294.1,0 -372.22,229.77 -372.22,408.99 0,114.88 27.58,193.01 55.14,238.96 36.77,68.93 119.48,170.03 321.68,170.03 257.34,0 340.06,-206.8 340.06,-248.16zm703.09 -275.72c0,-41.36 0,-137.87 -55.14,-202.2 -50.55,-59.74 -119.48,-91.91 -215.98,-91.91 -124.07,0 -188.42,59.74 -243.56,128.68l0 -321.68c0,-50.55 0,-105.69 -68.93,-105.69 -64.33,0 -64.33,55.14 -64.33,105.69l0 900.69c0,50.55 0,110.29 64.33,110.29 22.98,0 41.36,-13.79 50.55,-22.98 18.38,-18.37 18.38,-41.36 18.38,-87.31l0 -261.94c0,-160.83 13.78,-193 36.77,-234.36 32.17,-64.34 110.28,-105.7 183.81,-105.7 55.15,0 110.29,27.58 137.87,73.53 22.97,36.76 27.58,105.69 27.58,147.05l0 381.42c0,41.36 0,55.14 4.59,73.52 9.19,22.97 36.77,36.77 55.14,36.77 22.98,0 45.96,-13.79 55.15,-27.58 13.78,-18.38 13.78,-32.17 13.78,-82.72l0 -413.58 0 0.01zm629.56 395.2c18.38,55.14 36.77,128.68 87.32,128.68 36.76,0 64.33,-27.58 64.33,-55.15 0,-22.97 -13.78,-59.74 -13.78,-64.33 -9.19,-27.58 -22.98,-59.74 -22.98,-133.27 0,-32.17 4.6,-206.79 4.6,-243.56 0,-183.82 -18.38,-321.67 -317.08,-321.67 -284.92,0 -335.47,165.43 -335.47,211.39 0,32.17 27.58,55.14 59.74,55.14 41.36,0 50.55,-27.58 64.34,-64.33 32.17,-78.13 128.67,-105.7 220.57,-105.7 170.03,0 174.62,96.51 179.22,202.2 -36.76,9.19 -50.54,13.78 -73.52,22.97 -32.17,4.6 -188.41,32.17 -220.57,41.36 -91.91,18.38 -257.34,50.55 -257.34,229.78 0,110.28 78.12,225.17 252.74,225.17 170.03,0 271.13,-91.91 307.89,-128.68zm-9.19 -298.7c0,87.32 -4.59,156.24 -32.17,211.39 -45.95,78.12 -151.64,110.28 -234.36,110.28 -110.29,0 -151.65,-73.52 -151.65,-128.67 0,-32.17 13.78,-91.91 101.1,-119.48 64.33,-13.78 137.86,-27.57 229.77,-45.95 41.36,-9.19 68.93,-18.38 87.31,-27.58zm294.11 -372.22l-36.77 0c-18.37,0 -73.52,0 -73.52,45.95 0,0 0,45.96 59.74,45.96l50.55 0 0 477.92c0,96.51 0,225.17 183.82,225.17 82.72,0 147.05,-13.78 147.05,-68.93 0,-27.57 -18.38,-45.95 -45.95,-45.95 -9.19,0 -64.34,9.19 -73.52,9.19 -73.53,0 -78.13,-55.14 -78.13,-133.27l0 -464.13 73.52 0c41.36,0 78.13,-13.79 78.13,-45.96 0,-45.95 -50.55,-45.95 -82.72,-45.95l-68.93 0 0 -142.46c0,-55.14 0,-114.88 -68.93,-114.88 -22.97,0 -45.95,13.78 -55.14,27.58 -9.19,22.97 -9.19,36.76 -9.19,96.5l0 133.27z"/>
    </g>
   </g>
   <path class="fil7" d="M7029.45 1920.14l-191 0 -75.02 106.26 -102.68 0 347.69 -481.55 111.97 0 1.95 481.55 -93.93 0 1.03 -106.26zm0.85 -80.71l1.93 -193.7 -136.78 193.7 134.85 0zm261.79 -162.08l90 0 -16.3 45.84c25.52,-19.73 48.79,-33.63 69.62,-42.04 20.83,-8.41 42,-12.55 63.63,-12.55 28.8,0 50.26,8.3 64.32,25 13.97,16.7 18.78,38.78 14.43,66.36 -2.03,12.22 -9.71,35.31 -23.01,69.28l-73.32 197.17 -94.16 0 73.97 -197.73c10.82,-29.6 16.85,-47.2 18.11,-53.03 1.96,-12.44 -0.11,-22.08 -6.17,-29.14 -6.17,-7.07 -15.58,-10.65 -28.36,-10.65 -14.02,0 -30.4,5.82 -49.27,17.48 -18.88,11.66 -34.65,27.13 -47.42,46.29 -9.42,13.57 -22,41.48 -37.82,83.51l-52.15 143.25 -94.16 0 128.08 -349.05zm299.13 204.23c10.22,-64.89 36.52,-116.57 79.03,-155.13 42.51,-38.57 93.4,-57.84 152.7,-57.84 51.34,0 89.22,14.24 113.66,42.71 24.32,28.47 32.76,66.69 25.17,114.89 -8.93,56.61 -34.69,105.7 -77.29,146.95 -42.61,41.36 -94.18,61.98 -154.71,61.98 -32.84,0 -60.94,-6.61 -84.2,-19.72 -23.25,-13.23 -39.25,-31.95 -47.9,-56.05 -8.62,-24.21 -10.82,-50.11 -6.47,-77.8zm279.04 -67.81c3.55,-22.53 -0.11,-40.57 -10.97,-54.14 -10.87,-13.57 -26.5,-20.4 -47.01,-20.4 -20.29,0 -39.34,6.39 -57.03,19.05 -17.69,12.66 -32.82,31.16 -45.36,55.26 -12.55,24.21 -20.45,46.52 -23.64,66.81 -3.97,25.22 -0.38,45.17 10.84,59.97 11.24,14.8 27.1,22.2 47.62,22.2 25.78,0 49.07,-11.21 70.06,-33.51 29.85,-31.5 48.35,-69.95 55.49,-115.24zm78.83 115.57l93.77 -14.58c5.01,19.4 12.95,33.07 23.66,41.14 10.75,7.96 26.37,11.99 47.1,11.99 21.41,0 39.32,-4.82 53.64,-14.57 10.02,-6.62 15.79,-14.8 17.27,-24.21 1.02,-6.5 -0.32,-12.22 -4.13,-17.26 -4.06,-4.82 -16.12,-10.76 -36.2,-17.82 -53.75,-18.84 -86.47,-33.85 -98.31,-44.84 -18.5,-17.04 -25.5,-39.45 -21.15,-67.14 4.36,-27.68 18.44,-51.56 42.12,-71.63 32.97,-27.91 77.65,-41.81 133.93,-41.81 44.84,0 77.38,8.3 97.65,24.77 20.39,16.48 31.33,38.78 33.07,66.92l-89.18 15.25c-2.58,-12.78 -8.45,-22.41 -17.65,-28.8 -12.66,-8.63 -28.69,-12.9 -48.3,-12.9 -19.61,0 -34.25,3.25 -43.92,9.87 -9.67,6.61 -15.14,14.24 -16.48,22.75 -1.4,8.86 1.85,16.03 9.69,21.75 4.81,3.59 21.43,9.75 49.65,18.5 43.74,13.45 72.27,26.56 85.69,39.57 18.98,18.27 26.4,40.24 22.36,65.91 -5.23,33.18 -23.66,61.99 -55.32,86.42 -31.52,24.33 -72.57,36.54 -123.12,36.54 -50.33,0 -87.64,-9.3 -112.19,-27.79 -24.56,-18.5 -39.07,-44.5 -43.65,-78.02z"/>
   <polygon class="fil2" points="5104.95,0 5193.23,0 5193.23,2522.47 5104.95,2522.47 "/>
  </g>
 </g>
</svg>
